# xmcd
#
# Track frame offsets:
#  150
#  19309
#  34541
#  53817
#  77017
#  96567
#  114411
#  131865
#  147500
#  165298
#  180093
#  197946
#  222879
#  239462
#
# Disc length: 3458 seconds
#
# Revision: 1
# Processed by: cddbd v1.5.1PL2 Copyright (c) Steve Scherf et al.
# Submitted via: Collectorz.com_Music_Collector 6.10
#
DISCID=c00d800e
DTITLE=Nathan and Zydeco Cha Chas - Hang It High Hang It Low
DYEAR=2006
DGENRE=Blues - Zydeco/Cajun
TTITLE0=Old Man's Darling
TTITLE1=Fa Fa Fa Fa Fa
TTITLE2=Don't Worry 'bout The Mule
TTITLE3=Your Love Lasts As Long As Your Money
TTITLE4=My Zydeco
TTITLE5=Do It Now
TTITLE6=Time To Do My Thing
TTITLE7=Hang It High, Hang It Low
TTITLE8=Think About The Good Times
TTITLE9=Zydeco Cha Cha
TTITLE10=The Bluest Man
TTITLE11=Zydeco Train
TTITLE12=I Was Born At Night (But Not Last Night)
TTITLE13=So Glad You're Mine
EXTD=
EXTT0=
EXTT1=
EXTT2=
EXTT3=
EXTT4=
EXTT5=
EXTT6=
EXTT7=
EXTT8=
EXTT9=
EXTT10=
EXTT11=
EXTT12=
EXTT13=
PLAYORDER=
